<svg width="24" height="24" viewBox="0 0 24 24" fill="none" xmlns="http://www.w3.org/2000/svg">
<path d="M9.56988 5.18001C9.75988 5.18001 9.94988 5.25 10.0999 5.4C10.3899 5.69 10.3899 6.17 10.0999 6.46L4.55988 12L10.0999 17.54C10.3899 17.83 10.3899 18.31 10.0999 18.6C9.80988 18.89 9.32988 18.89 9.03988 18.6L2.96988 12.53C2.67988 12.24 2.67988 11.76 2.96988 11.47L9.03988 5.4C9.18988 5.25 9.37988 5.18 9.56988 5.18001Z" fill="#1A6FEE"/>
<path d="M3.67 11.25L20.5 11.25C20.91 11.25 21.25 11.59 21.25 12C21.25 12.41 20.91 12.75 20.5 12.75L3.67 12.75C3.26 12.75 2.92 12.41 2.92 12C2.92 11.59 3.26 11.25 3.67 11.25Z" fill="#1A6FEE"/>
</svg>
