<svg width="22" height="18" viewBox="0 0 22 18" fill="none" xmlns="http://www.w3.org/2000/svg">
<path d="M7.99976 8C9.10433 8 9.99976 7.10457 9.99976 6C9.99976 4.89543 9.10433 4 7.99976 4C6.89519 4 5.99976 4.89543 5.99976 6C5.99976 7.10457 6.89519 8 7.99976 8Z" stroke="white" stroke-width="1.5"/>
<path d="M11.9998 12C11.9998 13.105 11.9998 14 7.99976 14C3.99976 14 3.99976 13.105 3.99976 12C3.99976 10.895 5.78976 10 7.99976 10C10.2098 10 11.9998 10.895 11.9998 12Z" stroke="white" stroke-width="1.5"/>
<path opacity="0.5" d="M0.999756 9C0.999756 5.229 0.999756 3.343 2.17176 2.172C3.34276 1 5.22876 1 8.99976 1H12.9998C16.7708 1 18.6568 1 19.8278 2.172C20.9998 3.343 20.9998 5.229 20.9998 9C20.9998 12.771 20.9998 14.657 19.8278 15.828C18.6568 17 16.7708 17 12.9998 17H8.99976C5.22876 17 3.34276 17 2.17176 15.828C0.999756 14.657 0.999756 12.771 0.999756 9Z" stroke="white" stroke-width="1.5"/>
<path d="M17.9998 9H13.9998M17.9998 6H12.9998" stroke="white" stroke-width="1.5" stroke-linecap="round"/>
<path opacity="0.9" d="M17.9998 12H14.9998" stroke="white" stroke-width="1.5" stroke-linecap="round"/>
</svg>
